STARTFONT 2.1
FONT -Adobe-Courier-Medium-R-Normal--20-140-100-100-M-110-ISO8859-2
SIZE 14 100 100
FONTBOUNDINGBOX 12 19 -1 -4
COMMENT $XConsortium: courR14.bdf,v 1.6 95/01/26 17:53:32 gildea Exp $
COMMENT 
COMMENT +
COMMENT  Copyright 1984-1989, 1994 Adobe Systems Incorporated.
COMMENT  Copyright 1988, 1994 Digital Equipment Corporation.
COMMENT
COMMENT  Adobe is a trademark of Adobe Systems Incorporated which may be
COMMENT  registered in certain jurisdictions.
COMMENT  Permission to use these trademarks is hereby granted only in
COMMENT  association with the images described in this file.
COMMENT
COMMENT  Permission to use, copy, modify, distribute and sell this software
COMMENT  and its documentation for any purpose and without fee is hereby
COMMENT  granted, provided that the above copyright notices appear in all
COMMENT  copies and that both those copyright notices and this permission
COMMENT  notice appear in supporting documentation, and that the names of
COMMENT  Adobe Systems and Digital Equipment Corporation not be used in
COMMENT  advertising or publicity pertaining to distribution of the software
COMMENT  without specific, written prior permission.  Adobe Systems and
COMMENT  Digital Equipment Corporation make no representations about the
COMMENT  suitability of this software for any purpose.  It is provided "as
COMMENT  is" without express or implied warranty.
COMMENT -
COMMENT  
COMMENT  Translation to ISO8859-2 by Cub Soft;  Petr.Kolar@vslib.cz
COMMENT  
STARTPROPERTIES 28
FOUNDRY "Adobe"
FAMILY_NAME "Courier"
WEIGHT_NAME "Medium"
SLANT "R"
SETWIDTH_NAME "Normal"
ADD_STYLE_NAME ""
PIXEL_SIZE 20
POINT_SIZE 140
RESOLUTION_X 100
RESOLUTION_Y 100
SPACING "M"
AVERAGE_WIDTH 110
CHARSET_REGISTRY "ISO8859"
CHARSET_ENCODING "2"
CAP_HEIGHT 11
X_HEIGHT 8
FONT_ASCENT 13
FONT_DESCENT 4
FACE_NAME "Courier"

STARTCHAR space
ENCODING 32
SWIDTH 600 0
DWIDTH 11 0
BBX 1 1 0 0
BITMAP
00
ENDCHAR
STARTCHAR exclam
ENCODING 33
SWIDTH 600 0
DWIDTH 11 0
BBX 2 12 4 0
BITMAP
c0
c0
c0
c0
c0
c0
40
40
00
00
c0
c0
ENDCHAR
STARTCHAR quotedbl
ENCODING 34
SWIDTH 600 0
DWIDTH 11 0
BBX 6 5 3 7
BITMAP
cc
cc
cc
44
44
ENDCHAR
STARTCHAR numbersign
ENCODING 35
SWIDTH 600 0
DWIDTH 11 0
BBX 8 15 1 -2
BITMAP
12
12
12
12
12
7f
24
24
24
fe
24
24
24
24
24
ENDCHAR
STARTCHAR dollar
ENCODING 36
SWIDTH 600 0
DWIDTH 11 0
BBX 6 15 2 -2
BITMAP
10
10
74
8c
84
80
60
18
04
84
c4
b8
10
10
10
ENDCHAR
STARTCHAR percent
ENCODING 37
SWIDTH 600 0
DWIDTH 11 0
BBX 9 12 1 0
BITMAP
3800
4400
4400
4400
3980
0e00
3000
ce00
1100
1100
1100
0e00
ENDCHAR
STARTCHAR ampersand
ENCODING 38
SWIDTH 600 0
DWIDTH 11 0
BBX 7 10 2 0
BITMAP
38
40
40
40
20
74
88
88
98
66
ENDCHAR
STARTCHAR apostrophe
ENCODING 39
SWIDTH 600 0
DWIDTH 11 0
BBX 4 5 3 7
BITMAP
30
30
60
40
80
ENDCHAR
STARTCHAR parenleft
ENCODING 40
SWIDTH 600 0
DWIDTH 11 0
BBX 3 14 5 -2
BITMAP
20
40
40
80
80
80
80
80
80
80
80
40
40
20
ENDCHAR
STARTCHAR parenright
ENCODING 41
SWIDTH 600 0
DWIDTH 11 0
BBX 3 14 3 -2
BITMAP
80
40
40
20
20
20
20
20
20
20
20
40
40
80
ENDCHAR
STARTCHAR asterisk
ENCODING 42
SWIDTH 600 0
DWIDTH 11 0
BBX 7 8 2 4
BITMAP
10
10
10
fe
10
28
44
44
ENDCHAR
STARTCHAR plus
ENCODING 43
SWIDTH 600 0
DWIDTH 11 0
BBX 9 9 1 1
BITMAP
0800
0800
0800
0800
ff80
0800
0800
0800
0800
ENDCHAR
STARTCHAR comma
ENCODING 44
SWIDTH 600 0
DWIDTH 11 0
BBX 4 5 3 -3
BITMAP
30
30
60
40
80
ENDCHAR
STARTCHAR minus
ENCODING 45
SWIDTH 600 0
DWIDTH 11 0
BBX 9 1 1 5
BITMAP
ff80
ENDCHAR
STARTCHAR period
ENCODING 46
SWIDTH 600 0
DWIDTH 11 0
BBX 2 2 4 0
BITMAP
c0
c0
ENDCHAR
STARTCHAR slash
ENCODING 47
SWIDTH 600 0
DWIDTH 11 0
BBX 8 16 1 -3
BITMAP
01
01
02
02
04
04
08
08
10
10
20
20
40
40
80
80
ENDCHAR
STARTCHAR zero
ENCODING 48
SWIDTH 600 0
DWIDTH 11 0
BBX 7 12 2 0
BITMAP
38
44
82
82
82
82
82
82
82
82
44
38
ENDCHAR
STARTCHAR one
ENCODING 49
SWIDTH 600 0
DWIDTH 11 0
BBX 7 12 2 0
BITMAP
30
d0
10
10
10
10
10
10
10
10
10
fe
ENDCHAR
STARTCHAR two
ENCODING 50
SWIDTH 600 0
DWIDTH 11 0
BBX 8 12 1 0
BITMAP
1c
22
41
41
01
02
04
08
10
21
41
ff
ENDCHAR
STARTCHAR three
ENCODING 51
SWIDTH 600 0
DWIDTH 11 0
BBX 7 12 2 0
BITMAP
78
84
02
02
04
38
04
02
02
02
84
78
ENDCHAR
STARTCHAR four
ENCODING 52
SWIDTH 600 0
DWIDTH 11 0
BBX 7 12 2 0
BITMAP
0c
14
14
24
24
44
44
84
fe
04
04
1e
ENDCHAR
STARTCHAR five
ENCODING 53
SWIDTH 600 0
DWIDTH 11 0
BBX 8 12 1 0
BITMAP
7e
40
40
40
5c
62
01
01
01
01
c2
3c
ENDCHAR
STARTCHAR six
ENCODING 54
SWIDTH 600 0
DWIDTH 11 0
BBX 7 12 2 0
BITMAP
1c
60
40
80
80
b8
c4
82
82
82
44
38
ENDCHAR
STARTCHAR seven
ENCODING 55
SWIDTH 600 0
DWIDTH 11 0
BBX 7 12 2 0
BITMAP
fe
82
02
02
04
04
04
04
08
08
08
08
ENDCHAR
STARTCHAR eight
ENCODING 56
SWIDTH 600 0
DWIDTH 11 0
BBX 7 12 2 0
BITMAP
38
44
82
82
44
38
44
82
82
82
44
38
ENDCHAR
STARTCHAR nine
ENCODING 57
SWIDTH 600 0
DWIDTH 11 0
BBX 7 12 2 0
BITMAP
38
44
82
82
82
46
3a
02
02
04
0c
70
ENDCHAR
STARTCHAR colon
ENCODING 58
SWIDTH 600 0
DWIDTH 11 0
BBX 2 8 4 0
BITMAP
c0
c0
00
00
00
00
c0
c0
ENDCHAR
STARTCHAR semicolon
ENCODING 59
SWIDTH 600 0
DWIDTH 11 0
BBX 4 11 2 -3
BITMAP
30
30
00
00
00
00
30
30
60
40
80
ENDCHAR
STARTCHAR less
ENCODING 60
SWIDTH 600 0
DWIDTH 11 0
BBX 10 9 0 1
BITMAP
00c0
0300
0c00
3000
c000
3000
0c00
0300
00c0
ENDCHAR
STARTCHAR equal
ENCODING 61
SWIDTH 600 0
DWIDTH 11 0
BBX 9 4 1 3
BITMAP
ff80
0000
0000
ff80
ENDCHAR
STARTCHAR greater
ENCODING 62
SWIDTH 600 0
DWIDTH 11 0
BBX 10 9 0 1
BITMAP
c000
3000
0c00
0300
00c0
0300
0c00
3000
c000
ENDCHAR
STARTCHAR question
ENCODING 63
SWIDTH 600 0
DWIDTH 11 0
BBX 7 11 2 0
BITMAP
7c
82
82
02
02
1c
10
10
00
18
18
ENDCHAR
STARTCHAR at
ENCODING 64
SWIDTH 600 0
DWIDTH 11 0
BBX 8 13 2 -1
BITMAP
38
44
82
82
8e
92
92
92
8f
80
80
43
3c
ENDCHAR
STARTCHAR A
ENCODING 65
SWIDTH 600 0
DWIDTH 11 0
BBX 11 11 0 0
BITMAP
3c00
0400
0a00
0a00
1100
1100
2080
3f80
4040
4040
f1e0
ENDCHAR
STARTCHAR B
ENCODING 66
SWIDTH 600 0
DWIDTH 11 0
BBX 9 11 1 0
BITMAP
fc00
4200
4100
4100
4200
7e00
4100
4080
4080
4100
fe00
ENDCHAR
STARTCHAR C
ENCODING 67
SWIDTH 600 0
DWIDTH 11 0
BBX 9 11 1 0
BITMAP
1e80
6180
4080
8000
8000
8000
8000
8000
4080
6100
1e00
ENDCHAR
STARTCHAR D
ENCODING 68
SWIDTH 600 0
DWIDTH 11 0
BBX 9 11 1 0
BITMAP
fc00
4300
4100
4080
4080
4080
4080
4080
4100
4300
fc00
ENDCHAR
STARTCHAR E
ENCODING 69
SWIDTH 600 0
DWIDTH 11 0
BBX 8 11 1 0
BITMAP
ff
41
41
41
48
78
48
41
41
41
ff
ENDCHAR
STARTCHAR F
ENCODING 70
SWIDTH 600 0
DWIDTH 11 0
BBX 8 11 1 0
BITMAP
ff
41
41
41
48
78
48
40
40
40
f0
ENDCHAR
STARTCHAR G
ENCODING 71
SWIDTH 600 0
DWIDTH 11 0
BBX 10 11 1 0
BITMAP
1e80
6180
4080
8000
8000
8000
83c0
8080
4080
6100
1e00
ENDCHAR
STARTCHAR H
ENCODING 72
SWIDTH 600 0
DWIDTH 11 0
BBX 9 11 1 0
BITMAP
e380
4100
4100
4100
4100
7f00
4100
4100
4100
4100
e380
ENDCHAR
STARTCHAR I
ENCODING 73
SWIDTH 600 0
DWIDTH 11 0
BBX 7 11 2 0
BITMAP
fe
10
10
10
10
10
10
10
10
10
fe
ENDCHAR
STARTCHAR J
ENCODING 74
SWIDTH 600 0
DWIDTH 11 0
BBX 9 11 1 0
BITMAP
1f80
0200
0200
0200
0200
0200
8200
8200
8200
4400
3800
ENDCHAR
STARTCHAR K
ENCODING 75
SWIDTH 600 0
DWIDTH 11 0
BBX 10 11 1 0
BITMAP
f3c0
4100
4200
4400
4800
5800
6400
4200
4200
4100
f1c0
ENDCHAR
STARTCHAR L
ENCODING 76
SWIDTH 600 0
DWIDTH 11 0
BBX 9 11 1 0
BITMAP
f800
2000
2000
2000
2000
2000
2000
2080
2080
2080
ff80
ENDCHAR
STARTCHAR M
ENCODING 77
SWIDTH 600 0
DWIDTH 11 0
BBX 11 11 0 0
BITMAP
e0e0
60c0
5140
5140
4a40
4a40
4440
4440
4040
4040
f1e0
ENDCHAR
STARTCHAR N
ENCODING 78
SWIDTH 600 0
DWIDTH 11 0
BBX 9 11 1 0
BITMAP
e780
6100
5100
5100
4900
4900
4500
4500
4300
4300
f100
ENDCHAR
STARTCHAR O
ENCODING 79
SWIDTH 600 0
DWIDTH 11 0
BBX 9 11 1 0
BITMAP
1c00
6300
4100
8080
8080
8080
8080
8080
4100
6300
1c00
ENDCHAR
STARTCHAR P
ENCODING 80
SWIDTH 600 0
DWIDTH 11 0
BBX 9 11 1 0
BITMAP
fe00
4100
4080
4080
4100
7e00
4000
4000
4000
4000
f800
ENDCHAR
STARTCHAR Q
ENCODING 81
SWIDTH 600 0
DWIDTH 11 0
BBX 9 13 1 -2
BITMAP
1c00
6300
4100
8080
8080
8080
8080
8080
4100
6300
1c00
3880
4700
ENDCHAR
STARTCHAR R
ENCODING 82
SWIDTH 600 0
DWIDTH 11 0
BBX 10 11 1 0
BITMAP
fe00
4100
4080
4080
4100
7e00
4400
4200
4200
4100
f0c0
ENDCHAR
STARTCHAR S
ENCODING 83
SWIDTH 600 0
DWIDTH 11 0
BBX 8 11 1 0
BITMAP
3d
43
81
80
40
3c
02
01
81
c2
bc
ENDCHAR
STARTCHAR T
ENCODING 84
SWIDTH 600 0
DWIDTH 11 0
BBX 9 11 1 0
BITMAP
ff80
8880
8880
8880
0800
0800
0800
0800
0800
0800
3e00
ENDCHAR
STARTCHAR U
ENCODING 85
SWIDTH 600 0
DWIDTH 11 0
BBX 10 11 0 0
BITMAP
f3c0
4080
4080
4080
4080
4080
4080
4080
4080
2100
1e00
ENDCHAR
STARTCHAR V
ENCODING 86
SWIDTH 600 0
DWIDTH 11 0
BBX 11 11 0 0
BITMAP
f1e0
4040
4040
2080
2080
1100
1100
0a00
0a00
0400
0400
ENDCHAR
STARTCHAR W
ENCODING 87
SWIDTH 600 0
DWIDTH 11 0
BBX 11 11 0 0
BITMAP
f1e0
4040
4440
4440
4440
2a80
2a80
2a80
2a80
1100
1100
ENDCHAR
STARTCHAR X
ENCODING 88
SWIDTH 600 0
DWIDTH 11 0
BBX 9 11 1 0
BITMAP
e380
4100
2200
2200
1400
0800
1400
2200
2200
4100
e380
ENDCHAR
STARTCHAR Y
ENCODING 89
SWIDTH 600 0
DWIDTH 11 0
BBX 9 11 1 0
BITMAP
e380
4100
2200
2200
1400
1400
0800
0800
0800
0800
3e00
ENDCHAR
STARTCHAR Z
ENCODING 90
SWIDTH 600 0
DWIDTH 11 0
BBX 7 11 2 0
BITMAP
fe
82
82
04
08
10
20
40
82
82
fe
ENDCHAR
STARTCHAR bracketleft
ENCODING 91
SWIDTH 600 0
DWIDTH 11 0
BBX 3 15 5 -3
BITMAP
e0
80
80
80
80
80
80
80
80
80
80
80
80
80
e0
ENDCHAR
STARTCHAR backslash
ENCODING 92
SWIDTH 600 0
DWIDTH 11 0
BBX 8 16 2 -3
BITMAP
80
80
40
40
20
20
10
10
08
08
04
04
02
02
01
01
ENDCHAR
STARTCHAR bracketright
ENCODING 93
SWIDTH 600 0
DWIDTH 11 0
BBX 3 15 3 -3
BITMAP
e0
20
20
20
20
20
20
20
20
20
20
20
20
20
e0
ENDCHAR
STARTCHAR asciicircum
ENCODING 94
SWIDTH 600 0
DWIDTH 11 0
BBX 7 4 2 8
BITMAP
10
28
44
82
ENDCHAR
STARTCHAR underscore
ENCODING 95
SWIDTH 600 0
DWIDTH 11 0
BBX 11 1 0 -4
BITMAP
ffe0
ENDCHAR
STARTCHAR grave
ENCODING 96
SWIDTH 600 0
DWIDTH 11 0
BBX 3 3 4 9
BITMAP
80
40
20
ENDCHAR
STARTCHAR a
ENCODING 97
SWIDTH 600 0
DWIDTH 11 0
BBX 9 8 1 0
BITMAP
3c00
4200
0200
7e00
8200
8200
8600
7b80
ENDCHAR
STARTCHAR b
ENCODING 98
SWIDTH 600 0
DWIDTH 11 0
BBX 9 12 1 0
BITMAP
c000
4000
4000
4000
5e00
6100
4080
4080
4080
4080
6100
de00
ENDCHAR
STARTCHAR c
ENCODING 99
SWIDTH 600 0
DWIDTH 11 0
BBX 8 8 1 0
BITMAP
3d
43
81
80
80
80
43
3c
ENDCHAR
STARTCHAR d
ENCODING 100
SWIDTH 600 0
DWIDTH 11 0
BBX 9 12 1 0
BITMAP
0300
0100
0100
0100
3d00
4300
8100
8100
8100
8100
4300
3d80
ENDCHAR
STARTCHAR e
ENCODING 101
SWIDTH 600 0
DWIDTH 11 0
BBX 8 8 1 0
BITMAP
3c
42
81
ff
80
80
43
3c
ENDCHAR
STARTCHAR f
ENCODING 102
SWIDTH 600 0
DWIDTH 11 0
BBX 8 12 2 0
BITMAP
0f
10
20
20
fe
20
20
20
20
20
20
fe
ENDCHAR
STARTCHAR g
ENCODING 103
SWIDTH 600 0
DWIDTH 11 0
BBX 9 12 1 -4
BITMAP
3d80
4300
8100
8100
8100
8100
4300
3d00
0100
0100
0200
7c00
ENDCHAR
STARTCHAR h
ENCODING 104
SWIDTH 600 0
DWIDTH 11 0
BBX 9 12 1 0
BITMAP
c000
4000
4000
4000
5e00
6100
4100
4100
4100
4100
4100
e380
ENDCHAR
STARTCHAR i
ENCODING 105
SWIDTH 600 0
DWIDTH 11 0
BBX 7 11 2 0
BITMAP
10
10
00
70
10
10
10
10
10
10
fe
ENDCHAR
STARTCHAR j
ENCODING 106
SWIDTH 600 0
DWIDTH 11 0
BBX 6 15 2 -4
BITMAP
08
08
00
fc
04
04
04
04
04
04
04
04
04
08
f0
ENDCHAR
STARTCHAR k
ENCODING 107
SWIDTH 600 0
DWIDTH 11 0
BBX 9 12 1 0
BITMAP
c000
4000
4000
4000
4f00
4400
4800
7000
4800
4400
4200
c780
ENDCHAR
STARTCHAR l
ENCODING 108
SWIDTH 600 0
DWIDTH 11 0
BBX 7 12 2 0
BITMAP
f0
10
10
10
10
10
10
10
10
10
10
fe
ENDCHAR
STARTCHAR m
ENCODING 109
SWIDTH 600 0
DWIDTH 11 0
BBX 11 8 0 0
BITMAP
d980
6640
4440
4440
4440
4440
4440
e660
ENDCHAR
STARTCHAR n
ENCODING 110
SWIDTH 600 0
DWIDTH 11 0
BBX 9 8 1 0
BITMAP
de00
6100
4100
4100
4100
4100
4100
e380
ENDCHAR
STARTCHAR o
ENCODING 111
SWIDTH 600 0
DWIDTH 11 0
BBX 8 8 1 0
BITMAP
3c
42
81
81
81
81
42
3c
ENDCHAR
STARTCHAR p
ENCODING 112
SWIDTH 600 0
DWIDTH 11 0
BBX 9 12 1 -4
BITMAP
de00
6100
4080
4080
4080
4080
6100
5e00
4000
4000
4000
f000
ENDCHAR
STARTCHAR q
ENCODING 113
SWIDTH 600 0
DWIDTH 11 0
BBX 9 12 1 -4
BITMAP
3d80
4300
8100
8100
8100
8100
4300
3d00
0100
0100
0100
0780
ENDCHAR
STARTCHAR r
ENCODING 114
SWIDTH 600 0
DWIDTH 11 0
BBX 8 8 1 0
BITMAP
ee
31
20
20
20
20
20
fe
ENDCHAR
STARTCHAR s
ENCODING 115
SWIDTH 600 0
DWIDTH 11 0
BBX 7 8 2 0
BITMAP
7a
86
82
70
0c
82
c2
bc
ENDCHAR
STARTCHAR t
ENCODING 116
SWIDTH 600 0
DWIDTH 11 0
BBX 8 11 2 0
BITMAP
20
20
20
fe
20
20
20
20
20
21
1e
ENDCHAR
STARTCHAR u
ENCODING 117
SWIDTH 600 0
DWIDTH 11 0
BBX 9 8 1 0
BITMAP
c300
4100
4100
4100
4100
4100
4300
3d80
ENDCHAR
STARTCHAR v
ENCODING 118
SWIDTH 600 0
DWIDTH 11 0
BBX 9 8 1 0
BITMAP
e380
4100
2200
2200
1400
1400
0800
0800
ENDCHAR
STARTCHAR w
ENCODING 119
SWIDTH 600 0
DWIDTH 11 0
BBX 9 8 1 0
BITMAP
e380
4100
4900
4900
5500
5500
2200
2200
ENDCHAR
STARTCHAR x
ENCODING 120
SWIDTH 600 0
DWIDTH 11 0
BBX 8 8 1 0
BITMAP
e7
42
24
18
18
24
42
e7
ENDCHAR
STARTCHAR y
ENCODING 121
SWIDTH 600 0
DWIDTH 11 0
BBX 9 12 1 -4
BITMAP
e380
4100
4100
2200
2200
1400
1400
0800
0800
1000
1000
f800
ENDCHAR
STARTCHAR z
ENCODING 122
SWIDTH 600 0
DWIDTH 11 0
BBX 7 8 2 0
BITMAP
fe
82
84
08
10
22
42
fe
ENDCHAR
STARTCHAR braceleft
ENCODING 123
SWIDTH 600 0
DWIDTH 11 0
BBX 5 15 3 -3
BITMAP
18
20
20
20
20
20
20
c0
20
20
20
20
20
20
18
ENDCHAR
STARTCHAR bar
ENCODING 124
SWIDTH 600 0
DWIDTH 11 0
BBX 1 15 5 -3
BITMAP
80
80
80
80
80
80
80
80
80
80
80
80
80
80
80
ENDCHAR
STARTCHAR braceright
ENCODING 125
SWIDTH 600 0
DWIDTH 11 0
BBX 5 15 3 -3
BITMAP
c0
20
20
20
20
20
20
18
20
20
20
20
20
20
c0
ENDCHAR
STARTCHAR asciitilde
ENCODING 126
SWIDTH 600 0
DWIDTH 11 0
BBX 8 3 1 4
BITMAP
60
99
06
ENDCHAR
STARTCHAR nobreakspace
ENCODING 160
SWIDTH 600 0
DWIDTH 11 0
BBX 1 1 0 0
BITMAP
00
ENDCHAR
STARTCHAR Aogonek
ENCODING 161
SWIDTH 600 0
DWIDTH 11 0
BBX 11 15 0 -4
BITMAP
3c00
0400
0a00
0a00
1100
1100
2080
3f80
4040
4040
f1e0
0400
0800
0800
0600
ENDCHAR
STARTCHAR breve
ENCODING 162
SWIDTH 600 0
DWIDTH 11 0
BBX 5 3 3 9
BITMAP
88
88
70
ENDCHAR
STARTCHAR Lstroke
ENCODING 163
SWIDTH 600 0
DWIDTH 11 0
BBX 9 11 1 0
BITMAP
f800
2000
2000
2800
3000
6000
a000
2080
2080
2080
ff80
ENDCHAR
STARTCHAR currency
ENCODING 164
SWIDTH 600 0
DWIDTH 11 0
BBX 6 7 2 2
BITMAP
84
78
84
84
84
78
84
ENDCHAR
STARTCHAR Lcaron
ENCODING 165
SWIDTH 617 0
DWIDTH 12 0
BBX 10 12 1 0
BITMAP
00c0
f8c0
2180
2100
2200
2000
2000
2000
2080
2080
2080
ff80
ENDCHAR
STARTCHAR Sacute
ENCODING 166
SWIDTH 600 0
DWIDTH 11 0
BBX 8 15 1 0
BITMAP
02
04
08
00
3d
43
81
80
40
3c
02
01
81
c2
bc
ENDCHAR
STARTCHAR section
ENCODING 167
SWIDTH 600 0
DWIDTH 11 0
BBX 7 14 2 -2
BITMAP
3e
42
42
40
70
8c
82
62
1c
06
82
82
84
fc
ENDCHAR
STARTCHAR diaeresis
ENCODING 168
SWIDTH 600 0
DWIDTH 11 0
BBX 4 2 3 10
BITMAP
90
90
ENDCHAR
STARTCHAR Scaron
ENCODING 169
SWIDTH 600 0
DWIDTH 11 0
BBX 8 15 1 0
BITMAP
22
14
08
00
3d
43
81
80
40
3c
02
01
81
c2
bc
ENDCHAR
STARTCHAR Scedilla
ENCODING 170
SWIDTH 600 0
DWIDTH 11 0
BBX 8 14 1 -3
BITMAP
3d
43
81
80
40
3c
02
01
81
c2
bc
10
08
30
ENDCHAR
STARTCHAR Tcaron
ENCODING 171
SWIDTH 600 0
DWIDTH 11 0
BBX 9 15 1 0
BITMAP
2200
1400
0800
0000
ff80
8880
8880
8880
0800
0800
0800
0800
0800
0800
3e00
ENDCHAR
STARTCHAR Zacute
ENCODING 172
SWIDTH 600 0
DWIDTH 11 0
BBX 7 15 2 0
BITMAP
04
08
10
00
fe
82
82
04
08
10
20
40
82
82
fe
ENDCHAR
STARTCHAR hyphen
ENCODING 173
SWIDTH 600 0
DWIDTH 11 0
BBX 8 1 1 5
BITMAP
ff
ENDCHAR
STARTCHAR Zcaron
ENCODING 174
SWIDTH 600 0
DWIDTH 11 0
BBX 7 15 2 0
BITMAP
44
28
10
00
fe
82
82
04
08
10
20
40
82
82
fe
ENDCHAR
STARTCHAR Zabovedot
ENCODING 175
SWIDTH 600 0
DWIDTH 11 0
BBX 7 14 2 0
BITMAP
18
18
00
fe
82
82
04
08
10
20
40
82
82
fe
ENDCHAR
STARTCHAR degree
ENCODING 176
SWIDTH 600 0
DWIDTH 11 0
BBX 5 5 3 6
BITMAP
70
88
88
88
70
ENDCHAR
STARTCHAR aogonek
ENCODING 177
SWIDTH 600 0
DWIDTH 11 0
BBX 9 12 1 -4
BITMAP
3c00
4200
0200
7e00
8200
8200
8600
7b80
0800
1000
1000
0c00
ENDCHAR
STARTCHAR ogonek
ENCODING 178
SWIDTH 600 0
DWIDTH 11 0
BBX 3 4 5 -4
BITMAP
40
80
80
60
ENDCHAR
STARTCHAR lstroke
ENCODING 179
SWIDTH 600 0
DWIDTH 11 0
BBX 7 12 2 0
BITMAP
f0
10
10
10
14
18
30
50
10
10
10
fe
ENDCHAR
STARTCHAR acute
ENCODING 180
SWIDTH 600 0
DWIDTH 11 0
BBX 3 3 4 9
BITMAP
20
40
80
ENDCHAR
STARTCHAR lcaron
ENCODING 181
SWIDTH 668 0
DWIDTH 13 0
BBX 9 13 2 0
BITMAP
0180
f180
1300
1200
1400
1000
1000
1000
1000
1000
1000
1000
fe00
ENDCHAR
STARTCHAR sacute
ENCODING 182
SWIDTH 600 0
DWIDTH 11 0
BBX 7 12 2 0
BITMAP
04
08
10
00
7a
86
82
70
0c
82
c2
bc
ENDCHAR
STARTCHAR caron
ENCODING 183
SWIDTH 600 0
DWIDTH 11 0
BBX 5 3 3 9
BITMAP
88
50
20
ENDCHAR
STARTCHAR cedilla
ENCODING 184
SWIDTH 600 0
DWIDTH 11 0
BBX 3 3 4 -3
BITMAP
40
20
c0
ENDCHAR
STARTCHAR scaron
ENCODING 185
SWIDTH 600 0
DWIDTH 11 0
BBX 7 12 2 0
BITMAP
44
28
10
00
7a
86
82
70
0c
82
c2
bc
ENDCHAR
STARTCHAR scedilla
ENCODING 186
SWIDTH 600 0
DWIDTH 11 0
BBX 7 11 2 -3
BITMAP
7a
86
82
70
0c
82
c2
bc
10
08
30
ENDCHAR
STARTCHAR tcaron
ENCODING 187
SWIDTH 600 0
DWIDTH 11 0
BBX 8 14 2 0
BITMAP
03
03
06
24
28
20
fe
20
20
20
20
20
21
1e
ENDCHAR
STARTCHAR zacute
ENCODING 188
SWIDTH 600 0
DWIDTH 11 0
BBX 7 12 2 0
BITMAP
04
08
10
00
fe
82
84
08
10
22
42
fe
ENDCHAR
STARTCHAR doubleacute
ENCODING 189
SWIDTH 600 0
DWIDTH 11 0
BBX 6 3 2 9
BITMAP
24
48
90
ENDCHAR
STARTCHAR zcaron
ENCODING 190
SWIDTH 600 0
DWIDTH 11 0
BBX 7 12 2 0
BITMAP
44
28
10
00
fe
82
84
08
10
22
42
fe
ENDCHAR
STARTCHAR zabovedot
ENCODING 191
SWIDTH 600 0
DWIDTH 11 0
BBX 7 11 2 0
BITMAP
18
18
00
fe
82
84
08
10
22
42
fe
ENDCHAR
STARTCHAR Racute
ENCODING 192
SWIDTH 600 0
DWIDTH 11 0
BBX 10 15 1 0
BITMAP
0400
0800
1000
0000
fe00
4100
4080
4080
4100
7e00
4400
4200
4200
4100
f0c0
ENDCHAR
STARTCHAR Aacute
ENCODING 193
SWIDTH 600 0
DWIDTH 11 0
BBX 11 15 0 0
BITMAP
0100
0200
0400
0000
3c00
0400
0a00
0a00
1100
1100
2080
3f80
4040
4040
f1e0
ENDCHAR
STARTCHAR Acircumflex
ENCODING 194
SWIDTH 600 0
DWIDTH 11 0
BBX 11 15 0 0
BITMAP
0c00
1200
2100
0000
3c00
0400
0a00
0a00
1100
1100
2080
3f80
4040
4040
f1e0
ENDCHAR
STARTCHAR Abreve
ENCODING 195
SWIDTH 600 0
DWIDTH 11 0
BBX 11 15 0 0
BITMAP
4400
4400
3800
0000
3c00
0400
0a00
0a00
1100
1100
2080
3f80
4040
4040
f1e0
ENDCHAR
STARTCHAR Adiaeresis
ENCODING 196
SWIDTH 600 0
DWIDTH 11 0
BBX 11 14 0 0
BITMAP
1200
1200
0000
3c00
0400
0a00
0a00
1100
1100
2080
3f80
4040
4040
f1e0
ENDCHAR
STARTCHAR Lacute
ENCODING 197
SWIDTH 600 0
DWIDTH 11 0
BBX 9 15 1 0
BITMAP
0800
1000
2000
0000
f800
2000
2000
2000
2000
2000
2000
2080
2080
2080
ff80
ENDCHAR
STARTCHAR Cacute
ENCODING 198
SWIDTH 600 0
DWIDTH 11 0
BBX 9 15 1 0
BITMAP
0200
0400
0800
0000
1e80
6180
4080
8000
8000
8000
8000
8000
4080
6100
1e00
ENDCHAR
STARTCHAR Ccedilla
ENCODING 199
SWIDTH 600 0
DWIDTH 11 0
BBX 9 14 1 -3
BITMAP
1e80
6180
4080
8000
8000
8000
8000
8000
4080
6100
1e00
0800
0400
1800
ENDCHAR
STARTCHAR Ccaron
ENCODING 200
SWIDTH 600 0
DWIDTH 11 0
BBX 9 15 1 0
BITMAP
2200
1400
0800
0000
1e80
6180
4080
8000
8000
8000
8000
8000
4080
6100
1e00
ENDCHAR
STARTCHAR Eacute
ENCODING 201
SWIDTH 600 0
DWIDTH 11 0
BBX 8 15 1 0
BITMAP
04
08
10
00
ff
41
41
41
48
78
48
41
41
41
ff
ENDCHAR
STARTCHAR Eogonek
ENCODING 202
SWIDTH 600 0
DWIDTH 11 0
BBX 8 15 1 -4
BITMAP
ff
41
41
41
48
78
48
41
41
41
ff
10
20
20
18
ENDCHAR
STARTCHAR Ediaeresis
ENCODING 203
SWIDTH 600 0
DWIDTH 11 0
BBX 8 14 1 0
BITMAP
24
24
00
ff
41
41
41
48
78
48
41
41
41
ff
ENDCHAR
STARTCHAR Ecaron
ENCODING 204
SWIDTH 600 0
DWIDTH 11 0
BBX 8 15 1 0
BITMAP
44
28
10
00
ff
41
41
41
48
78
48
41
41
41
ff
ENDCHAR
STARTCHAR Iacute
ENCODING 205
SWIDTH 600 0
DWIDTH 11 0
BBX 7 15 2 0
BITMAP
08
10
20
00
fe
10
10
10
10
10
10
10
10
10
fe
ENDCHAR
STARTCHAR Icircumflex
ENCODING 206
SWIDTH 600 0
DWIDTH 11 0
BBX 7 15 2 0
BITMAP
18
24
42
00
fe
10
10
10
10
10
10
10
10
10
fe
ENDCHAR
STARTCHAR Dcaron
ENCODING 207
SWIDTH 600 0
DWIDTH 11 0
BBX 9 15 1 0
BITMAP
4400
2800
1000
0000
fc00
4300
4100
4080
4080
4080
4080
4080
4100
4300
fc00
ENDCHAR
STARTCHAR Dstroke
ENCODING 208
SWIDTH 600 0
DWIDTH 11 0
BBX 8 11 1 0
BITMAP
fc
42
41
41
41
f1
41
41
41
42
fc
ENDCHAR
STARTCHAR Nacute
ENCODING 209
SWIDTH 600 0
DWIDTH 11 0
BBX 9 15 1 0
BITMAP
0200
0400
0800
0000
e780
6100
5100
5100
4900
4900
4500
4500
4300
4300
f100
ENDCHAR
STARTCHAR Ncaron
ENCODING 210
SWIDTH 600 0
DWIDTH 11 0
BBX 9 15 1 0
BITMAP
2200
1400
0800
0000
e780
6100
5100
5100
4900
4900
4500
4500
4300
4300
f100
ENDCHAR
STARTCHAR Oacute
ENCODING 211
SWIDTH 600 0
DWIDTH 11 0
BBX 9 15 1 0
BITMAP
0400
0800
1000
0000
1c00
6300
4100
8080
8080
8080
8080
8080
4100
6300
1c00
ENDCHAR
STARTCHAR Ocircumflex
ENCODING 212
SWIDTH 600 0
DWIDTH 11 0
BBX 9 15 1 0
BITMAP
0c00
1200
2100
0000
1c00
6300
4100
8080
8080
8080
8080
8080
4100
6300
1c00
ENDCHAR
STARTCHAR Odoubleacute
ENCODING 213
SWIDTH 600 0
DWIDTH 11 0
BBX 9 15 1 0
BITMAP
0480
0900
1200
0000
1c00
6300
4100
8080
8080
8080
8080
8080
4100
6300
1c00
ENDCHAR
STARTCHAR Odiaeresis
ENCODING 214
SWIDTH 600 0
DWIDTH 11 0
BBX 9 14 1 0
BITMAP
1200
1200
0000
1c00
6300
4100
8080
8080
8080
8080
8080
4100
6300
1c00
ENDCHAR
STARTCHAR multiply
ENCODING 215
SWIDTH 600 0
DWIDTH 11 0
BBX 9 9 1 1
BITMAP
8080
4100
2200
1400
0800
1400
2200
4100
8080
ENDCHAR
STARTCHAR Rcaron
ENCODING 216
SWIDTH 600 0
DWIDTH 11 0
BBX 10 15 1 0
BITMAP
4400
2800
1000
0000
fe00
4100
4080
4080
4100
7e00
4400
4200
4200
4100
f0c0
ENDCHAR
STARTCHAR Uring
ENCODING 217
SWIDTH 600 0
DWIDTH 11 0
BBX 10 16 0 0
BITMAP
0c00
1200
1200
0c00
0000
f3c0
4080
4080
4080
4080
4080
4080
4080
4080
2100
1e00
ENDCHAR
STARTCHAR Uacute
ENCODING 218
SWIDTH 600 0
DWIDTH 11 0
BBX 10 15 0 0
BITMAP
0200
0400
0800
0000
f3c0
4080
4080
4080
4080
4080
4080
4080
4080
2100
1e00
ENDCHAR
STARTCHAR Udoubleacute
ENCODING 219
SWIDTH 600 0
DWIDTH 11 0
BBX 10 15 0 0
BITMAP
0480
0900
1200
0000
f3c0
4080
4080
4080
4080
4080
4080
4080
4080
2100
1e00
ENDCHAR
STARTCHAR Udiaeresis
ENCODING 220
SWIDTH 600 0
DWIDTH 11 0
BBX 10 14 0 0
BITMAP
1200
1200
0000
f3c0
4080
4080
4080
4080
4080
4080
4080
4080
2100
1e00
ENDCHAR
STARTCHAR Yacute
ENCODING 221
SWIDTH 600 0
DWIDTH 11 0
BBX 9 15 1 0
BITMAP
0200
0400
0800
0000
e380
4100
2200
2200
1400
1400
0800
0800
0800
0800
3e00
ENDCHAR
STARTCHAR Tcedilla
ENCODING 222
SWIDTH 600 0
DWIDTH 11 0
BBX 9 14 1 -3
BITMAP
ff80
8880
8880
8880
0800
0800
0800
0800
0800
0800
3e00
0800
0400
1800
ENDCHAR
STARTCHAR ssharp
ENCODING 223
SWIDTH 600 0
DWIDTH 11 0
BBX 8 11 1 0
BITMAP
3c
42
42
44
58
46
41
41
41
49
e6
ENDCHAR
STARTCHAR racute
ENCODING 224
SWIDTH 600 0
DWIDTH 11 0
BBX 8 12 1 0
BITMAP
04
08
10
00
ee
31
20
20
20
20
20
fe
ENDCHAR
STARTCHAR aacute
ENCODING 225
SWIDTH 600 0
DWIDTH 11 0
BBX 9 12 1 0
BITMAP
0400
0800
1000
0000
3c00
4200
0200
7e00
8200
8200
8600
7b80
ENDCHAR
STARTCHAR acircumflex
ENCODING 226
SWIDTH 600 0
DWIDTH 11 0
BBX 9 12 1 0
BITMAP
1800
2400
4200
0000
3c00
4200
0200
7e00
8200
8200
8600
7b80
ENDCHAR
STARTCHAR abreve
ENCODING 227
SWIDTH 600 0
DWIDTH 11 0
BBX 9 12 1 0
BITMAP
4400
4400
3800
0000
3c00
4200
0200
7e00
8200
8200
8600
7b80
ENDCHAR
STARTCHAR adiaeresis
ENCODING 228
SWIDTH 600 0
DWIDTH 11 0
BBX 9 11 1 0
BITMAP
2400
2400
0000
3c00
4200
0200
7e00
8200
8200
8600
7b80
ENDCHAR
STARTCHAR lacute
ENCODING 229
SWIDTH 600 0
DWIDTH 11 0
BBX 7 16 2 0
BITMAP
10
20
40
00
f0
10
10
10
10
10
10
10
10
10
10
fe
ENDCHAR
STARTCHAR cacute
ENCODING 230
SWIDTH 600 0
DWIDTH 11 0
BBX 8 12 1 0
BITMAP
02
04
08
00
3d
43
81
80
80
80
43
3c
ENDCHAR
STARTCHAR ccedilla
ENCODING 231
SWIDTH 600 0
DWIDTH 11 0
BBX 8 11 1 -3
BITMAP
3d
43
81
80
80
80
43
3c
10
08
30
ENDCHAR
STARTCHAR ccaron
ENCODING 232
SWIDTH 600 0
DWIDTH 11 0
BBX 8 12 1 0
BITMAP
22
14
08
00
3d
43
81
80
80
80
43
3c
ENDCHAR
STARTCHAR eacute
ENCODING 233
SWIDTH 600 0
DWIDTH 11 0
BBX 8 12 1 0
BITMAP
02
04
08
00
3c
42
81
ff
80
80
43
3c
ENDCHAR
STARTCHAR eogonek
ENCODING 234
SWIDTH 600 0
DWIDTH 11 0
BBX 8 12 1 -4
BITMAP
3c
42
81
ff
80
80
43
3c
10
20
20
18
ENDCHAR
STARTCHAR ediaeresis
ENCODING 235
SWIDTH 600 0
DWIDTH 11 0
BBX 8 11 1 0
BITMAP
24
24
00
3c
42
81
ff
80
80
43
3c
ENDCHAR
STARTCHAR ecaron
ENCODING 236
SWIDTH 600 0
DWIDTH 11 0
BBX 8 12 1 0
BITMAP
44
28
10
00
3c
42
81
ff
80
80
43
3c
ENDCHAR
STARTCHAR iacute
ENCODING 237
SWIDTH 600 0
DWIDTH 11 0
BBX 7 12 2 0
BITMAP
08
10
20
00
70
10
10
10
10
10
10
fe
ENDCHAR
STARTCHAR icircumflex
ENCODING 238
SWIDTH 600 0
DWIDTH 11 0
BBX 7 12 2 0
BITMAP
30
48
84
00
70
10
10
10
10
10
10
fe
ENDCHAR
STARTCHAR dcaron
ENCODING 239
SWIDTH 771 0
DWIDTH 15 0
BBX 13 13 1 0
BITMAP
0018
0318
0130
0120
0140
3d00
4300
8100
8100
8100
8100
4300
3d80
ENDCHAR
STARTCHAR dstroke
ENCODING 240
SWIDTH 617 0
DWIDTH 12 0
BBX 10 12 1 0
BITMAP
0300
0100
07c0
0100
3d00
4300
8100
8100
8100
8100
4300
3d80
ENDCHAR
STARTCHAR nacute
ENCODING 241
SWIDTH 600 0
DWIDTH 11 0
BBX 9 12 1 0
BITMAP
0400
0800
1000
0000
de00
6100
4100
4100
4100
4100
4100
e380
ENDCHAR
STARTCHAR ncaron
ENCODING 242
SWIDTH 600 0
DWIDTH 11 0
BBX 9 12 1 0
BITMAP
4400
2800
1000
0000
de00
6100
4100
4100
4100
4100
4100
e380
ENDCHAR
STARTCHAR oacute
ENCODING 243
SWIDTH 600 0
DWIDTH 11 0
BBX 8 12 1 0
BITMAP
04
08
10
00
3c
42
81
81
81
81
42
3c
ENDCHAR
STARTCHAR ocircumflex
ENCODING 244
SWIDTH 600 0
DWIDTH 11 0
BBX 8 12 1 0
BITMAP
18
24
42
00
3c
42
81
81
81
81
42
3c
ENDCHAR
STARTCHAR odoubleacute
ENCODING 245
SWIDTH 600 0
DWIDTH 11 0
BBX 8 12 1 0
BITMAP
09
12
24
00
3c
42
81
81
81
81
42
3c
ENDCHAR
STARTCHAR odiaeresis
ENCODING 246
SWIDTH 600 0
DWIDTH 11 0
BBX 8 11 1 0
BITMAP
24
24
00
3c
42
81
81
81
81
42
3c
ENDCHAR
STARTCHAR division
ENCODING 247
SWIDTH 600 0
DWIDTH 11 0
BBX 8 9 1 1
BITMAP
18
18
00
00
ff
00
00
18
18
ENDCHAR
STARTCHAR rcaron
ENCODING 248
SWIDTH 600 0
DWIDTH 11 0
BBX 8 12 1 0
BITMAP
44
28
10
00
ee
31
20
20
20
20
20
fe
ENDCHAR
STARTCHAR uring
ENCODING 249
SWIDTH 600 0
DWIDTH 11 0
BBX 9 13 1 0
BITMAP
1800
2400
2400
1800
0000
c300
4100
4100
4100
4100
4100
4300
3d80
ENDCHAR
STARTCHAR uacute
ENCODING 250
SWIDTH 600 0
DWIDTH 11 0
BBX 9 12 1 0
BITMAP
0200
0400
0800
0000
c300
4100
4100
4100
4100
4100
4300
3d80
ENDCHAR
STARTCHAR udoubleacute
ENCODING 251
SWIDTH 600 0
DWIDTH 11 0
BBX 9 12 1 0
BITMAP
0900
1200
2400
0000
c300
4100
4100
4100
4100
4100
4300
3d80
ENDCHAR
STARTCHAR udiaeresis
ENCODING 252
SWIDTH 600 0
DWIDTH 11 0
BBX 9 11 1 0
BITMAP
2400
2400
0000
c300
4100
4100
4100
4100
4100
4300
3d80
ENDCHAR
STARTCHAR yacute
ENCODING 253
SWIDTH 600 0
DWIDTH 11 0
BBX 9 16 1 -4
BITMAP
0200
0400
0800
0000
e380
4100
4100
2200
2200
1400
1400
0800
0800
1000
1000
f800
ENDCHAR
STARTCHAR tcedilla
ENCODING 254
SWIDTH 600 0
DWIDTH 11 0
BBX 8 14 2 -3
BITMAP
20
20
20
fe
20
20
20
20
20
21
1e
10
08
30
ENDCHAR
STARTCHAR abovedot
ENCODING 255
SWIDTH 600 0
DWIDTH 11 0
BBX 2 2 4 9
BITMAP
c0
c0
ENDCHAR
ENDFONT
